<mxfile host="Electron" agent="Mozilla/5.0 (Windows NT 10.0; Win64; x64) AppleWebKit/537.36 (KHTML, like Gecko) draw.io/25.0.2 Chrome/128.0.6613.186 Electron/32.2.5 Safari/537.36" version="25.0.2">
  <diagram name="PÃ¡gina-1" id="XoVfdVzmXT0FCT3dWPdM">
    <mxGraphModel dx="913" dy="540" grid="1" gridSize="10" guides="1" tooltips="1" connect="1" arrows="1" fold="1" page="1" pageScale="1" pageWidth="827" pageHeight="1169" background="none" math="0" shadow="1">
      <root>
        <mxCell id="0" />
        <mxCell id="1" parent="0" />
        <mxCell id="gqJFN9A-wY2o9Y6DUlTp-1" value="INICIO - ingresar_datos_producto" style="ellipse;whiteSpace=wrap;rounded=1;fillColor=#dae8fc;strokeColor=#6c8ebf;textShadow=1;strokeWidth=1;shadow=1;html=1;horizontal=1;fontSize=11;fontStyle=0;spacing=2;" parent="1" vertex="1">
          <mxGeometry x="300" y="10" width="140" height="80" as="geometry" />
        </mxCell>
        <mxCell id="gqJFN9A-wY2o9Y6DUlTp-24" value="" style="edgeStyle=orthogonalEdgeStyle;rounded=1;orthogonalLoop=1;jettySize=auto;fillColor=#dae8fc;strokeColor=#6c8ebf;textShadow=1;strokeWidth=1;shadow=1;html=1;horizontal=1;fontSize=11;fontStyle=0;spacing=2;exitX=0.5;exitY=1;exitDx=0;exitDy=0;" parent="1" edge="1">
          <mxGeometry relative="1" as="geometry">
            <mxPoint x="369.79" y="90" as="sourcePoint" />
            <mxPoint x="370" y="120" as="targetPoint" />
          </mxGeometry>
        </mxCell>
        <mxCell id="v9uKrOlxw0CcSmxydKH0-6" value="" style="edgeStyle=orthogonalEdgeStyle;rounded=1;orthogonalLoop=1;jettySize=auto;fillColor=#dae8fc;strokeColor=#6c8ebf;textShadow=1;strokeWidth=1;shadow=1;html=1;horizontal=1;fontSize=11;fontStyle=0;spacing=2;exitX=0.5;exitY=1;exitDx=0;exitDy=0;" parent="1" edge="1">
          <mxGeometry relative="1" as="geometry">
            <mxPoint x="369.70000000000005" y="1030" as="sourcePoint" />
            <mxPoint x="369.91" y="1060" as="targetPoint" />
          </mxGeometry>
        </mxCell>
        <mxCell id="v9uKrOlxw0CcSmxydKH0-8" value="" style="edgeStyle=orthogonalEdgeStyle;rounded=1;orthogonalLoop=1;jettySize=auto;fillColor=#dae8fc;strokeColor=#6c8ebf;textShadow=1;strokeWidth=1;shadow=1;html=1;horizontal=1;fontSize=11;fontStyle=0;spacing=2;exitX=0.5;exitY=1;exitDx=0;exitDy=0;" parent="1" edge="1">
          <mxGeometry relative="1" as="geometry">
            <mxPoint x="369.70000000000005" y="1100" as="sourcePoint" />
            <mxPoint x="369.91" y="1130" as="targetPoint" />
          </mxGeometry>
        </mxCell>
        <mxCell id="m65UX376wMRJ_-_wqiAm-23" style="edgeStyle=orthogonalEdgeStyle;rounded=0;orthogonalLoop=1;jettySize=auto;html=1;fillColor=#dae8fc;strokeColor=#6c8ebf;" parent="1" edge="1">
          <mxGeometry relative="1" as="geometry">
            <mxPoint x="370" y="1390" as="targetPoint" />
            <mxPoint x="427" y="1250" as="sourcePoint" />
            <Array as="points">
              <mxPoint x="559.9999999999999" y="1250" />
              <mxPoint x="559.9999999999999" y="1390" />
            </Array>
          </mxGeometry>
        </mxCell>
        <mxCell id="m65UX376wMRJ_-_wqiAm-24" value="NO" style="edgeLabel;html=1;align=center;verticalAlign=middle;resizable=0;points=[];" parent="m65UX376wMRJ_-_wqiAm-23" vertex="1" connectable="0">
          <mxGeometry x="-0.724" y="1" relative="1" as="geometry">
            <mxPoint as="offset" />
          </mxGeometry>
        </mxCell>
        <mxCell id="v9uKrOlxw0CcSmxydKH0-11" value="galleta[i].cantidad &amp;lt; 0" style="rhombus;whiteSpace=wrap;rounded=1;fillColor=#f8cecc;strokeColor=#b85450;textShadow=1;strokeWidth=1;shadow=1;html=1;horizontal=1;fontSize=11;fontStyle=0;spacing=2;" parent="1" vertex="1">
          <mxGeometry x="310" y="1200" width="120" height="100" as="geometry" />
        </mxCell>
        <mxCell id="v9uKrOlxw0CcSmxydKH0-21" value="" style="edgeStyle=orthogonalEdgeStyle;rounded=1;orthogonalLoop=1;jettySize=auto;fillColor=#dae8fc;strokeColor=#6c8ebf;textShadow=1;strokeWidth=1;shadow=1;html=1;horizontal=1;fontSize=11;fontStyle=0;spacing=2;exitX=0.957;exitY=0.494;exitDx=0;exitDy=0;exitPerimeter=0;" parent="1" source="m65UX376wMRJ_-_wqiAm-22" edge="1">
          <mxGeometry relative="1" as="geometry">
            <mxPoint x="440" y="1460" as="sourcePoint" />
            <mxPoint x="540" y="1080" as="targetPoint" />
            <Array as="points">
              <mxPoint x="440" y="1449" />
              <mxPoint x="599.9999999999999" y="1450" />
              <mxPoint x="599.9999999999999" y="1090" />
            </Array>
          </mxGeometry>
        </mxCell>
        <mxCell id="m65UX376wMRJ_-_wqiAm-48" value="NO" style="edgeLabel;html=1;align=center;verticalAlign=middle;resizable=0;points=[];" parent="v9uKrOlxw0CcSmxydKH0-21" vertex="1" connectable="0">
          <mxGeometry x="0.8935" y="-1" relative="1" as="geometry">
            <mxPoint as="offset" />
          </mxGeometry>
        </mxCell>
        <mxCell id="m65UX376wMRJ_-_wqiAm-5" value="Escribir(&quot;Ingrese el proveedor del producto: &quot;);" style="rounded=1;whiteSpace=wrap;fillColor=#fff2cc;strokeColor=#d6b656;textShadow=1;strokeWidth=1;shadow=1;html=1;horizontal=1;fontSize=11;fontStyle=0;spacing=2;" parent="1" vertex="1">
          <mxGeometry x="202.8" y="120" width="334.4" height="40" as="geometry" />
        </mxCell>
        <mxCell id="m65UX376wMRJ_-_wqiAm-10" value="Escribir(&quot;Ingresa la cantidad: &quot;);" style="rounded=1;whiteSpace=wrap;fillColor=#fff2cc;strokeColor=#d6b656;textShadow=1;strokeWidth=1;shadow=1;html=1;horizontal=1;fontSize=11;fontStyle=0;spacing=2;" parent="1" vertex="1">
          <mxGeometry x="202.80000000000004" y="1060" width="334.4" height="40" as="geometry" />
        </mxCell>
        <mxCell id="m65UX376wMRJ_-_wqiAm-11" value="Leer(galleta[i].cantidad);" style="rounded=1;whiteSpace=wrap;fillColor=#fff2cc;strokeColor=#d6b656;textShadow=1;strokeWidth=1;shadow=1;html=1;horizontal=1;fontSize=11;fontStyle=0;spacing=2;" parent="1" vertex="1">
          <mxGeometry x="202.80000000000004" y="1130" width="334.4" height="40" as="geometry" />
        </mxCell>
        <mxCell id="m65UX376wMRJ_-_wqiAm-13" value="" style="edgeStyle=orthogonalEdgeStyle;rounded=1;orthogonalLoop=1;jettySize=auto;fillColor=#dae8fc;strokeColor=#6c8ebf;textShadow=1;strokeWidth=1;shadow=1;html=1;horizontal=1;fontSize=11;fontStyle=0;spacing=2;exitX=0.5;exitY=1;exitDx=0;exitDy=0;" parent="1" edge="1">
          <mxGeometry relative="1" as="geometry">
            <mxPoint x="369.70000000000005" y="1170" as="sourcePoint" />
            <mxPoint x="369.91" y="1200" as="targetPoint" />
          </mxGeometry>
        </mxCell>
        <mxCell id="m65UX376wMRJ_-_wqiAm-14" value="" style="edgeStyle=orthogonalEdgeStyle;rounded=1;orthogonalLoop=1;jettySize=auto;fillColor=#dae8fc;strokeColor=#6c8ebf;textShadow=1;strokeWidth=1;shadow=1;html=1;horizontal=1;fontSize=11;fontStyle=0;spacing=2;exitX=0.5;exitY=1;exitDx=0;exitDy=0;" parent="1" edge="1">
          <mxGeometry relative="1" as="geometry">
            <mxPoint x="369.86000000000007" y="1298" as="sourcePoint" />
            <mxPoint x="370.07000000000005" y="1328" as="targetPoint" />
          </mxGeometry>
        </mxCell>
        <mxCell id="m65UX376wMRJ_-_wqiAm-18" value="SI" style="edgeLabel;html=1;align=center;verticalAlign=middle;resizable=0;points=[];" parent="m65UX376wMRJ_-_wqiAm-14" vertex="1" connectable="0">
          <mxGeometry x="-0.287" y="-1" relative="1" as="geometry">
            <mxPoint as="offset" />
          </mxGeometry>
        </mxCell>
        <mxCell id="m65UX376wMRJ_-_wqiAm-20" value="Escribir(&quot;Ingrese una cantidad valida.&quot;);" style="rounded=1;whiteSpace=wrap;fillColor=#fff2cc;strokeColor=#d6b656;textShadow=1;strokeWidth=1;shadow=1;html=1;horizontal=1;fontSize=11;fontStyle=0;spacing=2;" parent="1" vertex="1">
          <mxGeometry x="202.80000000000004" y="1330" width="334.4" height="40" as="geometry" />
        </mxCell>
        <mxCell id="m65UX376wMRJ_-_wqiAm-21" value="" style="edgeStyle=orthogonalEdgeStyle;rounded=1;orthogonalLoop=1;jettySize=auto;fillColor=#dae8fc;strokeColor=#6c8ebf;textShadow=1;strokeWidth=1;shadow=1;html=1;horizontal=1;fontSize=11;fontStyle=0;spacing=2;exitX=0.5;exitY=1;exitDx=0;exitDy=0;" parent="1" edge="1">
          <mxGeometry relative="1" as="geometry">
            <mxPoint x="369.75000000000006" y="1370" as="sourcePoint" />
            <mxPoint x="369.96000000000004" y="1400" as="targetPoint" />
          </mxGeometry>
        </mxCell>
        <mxCell id="m65UX376wMRJ_-_wqiAm-22" value="galleta[i].cantidad &amp;gt;= 0" style="rhombus;whiteSpace=wrap;rounded=1;fillColor=#f8cecc;strokeColor=#b85450;textShadow=1;strokeWidth=1;shadow=1;html=1;horizontal=1;fontSize=11;fontStyle=0;spacing=2;" parent="1" vertex="1">
          <mxGeometry x="310" y="1400" width="120" height="100" as="geometry" />
        </mxCell>
        <mxCell id="m65UX376wMRJ_-_wqiAm-25" value="" style="edgeStyle=orthogonalEdgeStyle;rounded=1;orthogonalLoop=1;jettySize=auto;fillColor=#dae8fc;strokeColor=#6c8ebf;textShadow=1;strokeWidth=1;shadow=1;html=1;horizontal=1;fontSize=11;fontStyle=0;spacing=2;exitX=0.5;exitY=1;exitDx=0;exitDy=0;" parent="1" edge="1">
          <mxGeometry relative="1" as="geometry">
            <mxPoint x="369.79" y="1498" as="sourcePoint" />
            <mxPoint x="370" y="1528" as="targetPoint" />
          </mxGeometry>
        </mxCell>
        <mxCell id="m65UX376wMRJ_-_wqiAm-26" value="" style="edgeStyle=orthogonalEdgeStyle;rounded=1;orthogonalLoop=1;jettySize=auto;fillColor=#dae8fc;strokeColor=#6c8ebf;textShadow=1;strokeWidth=1;shadow=1;html=1;horizontal=1;fontSize=11;fontStyle=0;spacing=2;exitX=0.5;exitY=1;exitDx=0;exitDy=0;" parent="1" edge="1">
          <mxGeometry relative="1" as="geometry">
            <mxPoint x="369.70000000000005" y="1568" as="sourcePoint" />
            <mxPoint x="369.91" y="1598" as="targetPoint" />
          </mxGeometry>
        </mxCell>
        <mxCell id="m65UX376wMRJ_-_wqiAm-27" value="" style="edgeStyle=orthogonalEdgeStyle;rounded=1;orthogonalLoop=1;jettySize=auto;fillColor=#dae8fc;strokeColor=#6c8ebf;textShadow=1;strokeWidth=1;shadow=1;html=1;horizontal=1;fontSize=11;fontStyle=0;spacing=2;exitX=0.5;exitY=1;exitDx=0;exitDy=0;" parent="1" edge="1">
          <mxGeometry relative="1" as="geometry">
            <mxPoint x="369.70000000000005" y="1638" as="sourcePoint" />
            <mxPoint x="369.91" y="1668" as="targetPoint" />
          </mxGeometry>
        </mxCell>
        <mxCell id="m65UX376wMRJ_-_wqiAm-30" style="edgeStyle=orthogonalEdgeStyle;rounded=0;orthogonalLoop=1;jettySize=auto;html=1;fillColor=#dae8fc;strokeColor=#6c8ebf;exitX=0.976;exitY=0.508;exitDx=0;exitDy=0;exitPerimeter=0;" parent="1" source="m65UX376wMRJ_-_wqiAm-46" edge="1">
          <mxGeometry relative="1" as="geometry">
            <mxPoint x="370" y="1850" as="targetPoint" />
            <mxPoint x="427" y="1710" as="sourcePoint" />
            <Array as="points">
              <mxPoint x="559.9999999999999" y="1718" />
              <mxPoint x="559.9999999999999" y="1850" />
            </Array>
          </mxGeometry>
        </mxCell>
        <mxCell id="m65UX376wMRJ_-_wqiAm-31" value="NO" style="edgeLabel;html=1;align=center;verticalAlign=middle;resizable=0;points=[];" parent="m65UX376wMRJ_-_wqiAm-30" vertex="1" connectable="0">
          <mxGeometry x="-0.724" y="1" relative="1" as="geometry">
            <mxPoint as="offset" />
          </mxGeometry>
        </mxCell>
        <mxCell id="m65UX376wMRJ_-_wqiAm-32" value="galleta[i].precio &amp;gt;= 0" style="rhombus;whiteSpace=wrap;rounded=1;fillColor=#f8cecc;strokeColor=#b85450;textShadow=1;strokeWidth=1;shadow=1;html=1;horizontal=1;fontSize=11;fontStyle=0;spacing=2;" parent="1" vertex="1">
          <mxGeometry x="310" y="1859" width="120" height="100" as="geometry" />
        </mxCell>
        <mxCell id="m65UX376wMRJ_-_wqiAm-33" value="" style="edgeStyle=orthogonalEdgeStyle;rounded=1;orthogonalLoop=1;jettySize=auto;fillColor=#dae8fc;strokeColor=#6c8ebf;textShadow=1;strokeWidth=1;shadow=1;html=1;horizontal=1;fontSize=11;fontStyle=0;spacing=2;exitX=0.975;exitY=0.517;exitDx=0;exitDy=0;entryX=1;entryY=0.5;entryDx=0;entryDy=0;exitPerimeter=0;" parent="1" source="m65UX376wMRJ_-_wqiAm-32" target="m65UX376wMRJ_-_wqiAm-35" edge="1">
          <mxGeometry relative="1" as="geometry">
            <mxPoint x="430.0000000000001" y="1919.38" as="sourcePoint" />
            <mxPoint x="545.1599999999999" y="1549.98" as="targetPoint" />
            <Array as="points">
              <mxPoint x="445" y="1911" />
              <mxPoint x="599.9999999999999" y="1910" />
              <mxPoint x="599.9999999999999" y="1548" />
            </Array>
          </mxGeometry>
        </mxCell>
        <mxCell id="m65UX376wMRJ_-_wqiAm-49" value="NO" style="edgeLabel;html=1;align=center;verticalAlign=middle;resizable=0;points=[];" parent="m65UX376wMRJ_-_wqiAm-33" vertex="1" connectable="0">
          <mxGeometry x="0.8828" relative="1" as="geometry">
            <mxPoint as="offset" />
          </mxGeometry>
        </mxCell>
        <mxCell id="m65UX376wMRJ_-_wqiAm-35" value="Escribir(&quot;Ingresa el precio: $&quot;);" style="rounded=1;whiteSpace=wrap;fillColor=#fff2cc;strokeColor=#d6b656;textShadow=1;strokeWidth=1;shadow=1;html=1;horizontal=1;fontSize=11;fontStyle=0;spacing=2;" parent="1" vertex="1">
          <mxGeometry x="202.80000000000004" y="1528" width="334.4" height="40" as="geometry" />
        </mxCell>
        <mxCell id="m65UX376wMRJ_-_wqiAm-36" value="Leer(galleta[i].precio);" style="rounded=1;whiteSpace=wrap;fillColor=#fff2cc;strokeColor=#d6b656;textShadow=1;strokeWidth=1;shadow=1;html=1;horizontal=1;fontSize=11;fontStyle=0;spacing=2;" parent="1" vertex="1">
          <mxGeometry x="202.80000000000004" y="1598" width="334.4" height="40" as="geometry" />
        </mxCell>
        <mxCell id="m65UX376wMRJ_-_wqiAm-39" value="Escribir(&quot;Ingrese una precio valido.&quot;);" style="rounded=1;whiteSpace=wrap;fillColor=#fff2cc;strokeColor=#d6b656;textShadow=1;strokeWidth=1;shadow=1;html=1;horizontal=1;fontSize=11;fontStyle=0;spacing=2;" parent="1" vertex="1">
          <mxGeometry x="202.80000000000004" y="1790" width="334.4" height="40" as="geometry" />
        </mxCell>
        <mxCell id="m65UX376wMRJ_-_wqiAm-40" value="" style="edgeStyle=orthogonalEdgeStyle;rounded=1;orthogonalLoop=1;jettySize=auto;fillColor=#dae8fc;strokeColor=#6c8ebf;textShadow=1;strokeWidth=1;shadow=1;html=1;horizontal=1;fontSize=11;fontStyle=0;spacing=2;exitX=0.5;exitY=1;exitDx=0;exitDy=0;" parent="1" edge="1">
          <mxGeometry relative="1" as="geometry">
            <mxPoint x="369.85" y="1760" as="sourcePoint" />
            <mxPoint x="370.06" y="1790" as="targetPoint" />
          </mxGeometry>
        </mxCell>
        <mxCell id="m65UX376wMRJ_-_wqiAm-51" value="SI" style="edgeLabel;html=1;align=center;verticalAlign=middle;resizable=0;points=[];" parent="m65UX376wMRJ_-_wqiAm-40" vertex="1" connectable="0">
          <mxGeometry x="-0.0429" relative="1" as="geometry">
            <mxPoint y="-1" as="offset" />
          </mxGeometry>
        </mxCell>
        <mxCell id="m65UX376wMRJ_-_wqiAm-46" value="galleta[i].precio &amp;lt; 0" style="rhombus;whiteSpace=wrap;rounded=1;fillColor=#f8cecc;strokeColor=#b85450;textShadow=1;strokeWidth=1;shadow=1;html=1;horizontal=1;fontSize=11;fontStyle=0;spacing=2;" parent="1" vertex="1">
          <mxGeometry x="310" y="1667" width="120" height="100" as="geometry" />
        </mxCell>
        <mxCell id="m65UX376wMRJ_-_wqiAm-47" value="" style="edgeStyle=orthogonalEdgeStyle;rounded=1;orthogonalLoop=1;jettySize=auto;fillColor=#dae8fc;strokeColor=#6c8ebf;textShadow=1;strokeWidth=1;shadow=1;html=1;horizontal=1;fontSize=11;fontStyle=0;spacing=2;exitX=0.5;exitY=1;exitDx=0;exitDy=0;" parent="1" edge="1">
          <mxGeometry relative="1" as="geometry">
            <mxPoint x="369.82000000000005" y="1830" as="sourcePoint" />
            <mxPoint x="370.03000000000003" y="1860" as="targetPoint" />
          </mxGeometry>
        </mxCell>
        <mxCell id="m65UX376wMRJ_-_wqiAm-52" value="" style="edgeStyle=orthogonalEdgeStyle;rounded=1;orthogonalLoop=1;jettySize=auto;fillColor=#dae8fc;strokeColor=#6c8ebf;textShadow=1;strokeWidth=1;shadow=1;html=1;horizontal=1;fontSize=11;fontStyle=0;spacing=2;exitX=0.5;exitY=1;exitDx=0;exitDy=0;" parent="1" edge="1">
          <mxGeometry relative="1" as="geometry">
            <mxPoint x="369.63000000000005" y="1958" as="sourcePoint" />
            <mxPoint x="369.84000000000003" y="1988" as="targetPoint" />
          </mxGeometry>
        </mxCell>
        <mxCell id="m65UX376wMRJ_-_wqiAm-53" value="FIN - ingresar_datos_producto" style="ellipse;whiteSpace=wrap;rounded=1;fillColor=#dae8fc;strokeColor=#6c8ebf;textShadow=1;strokeWidth=1;shadow=1;html=1;horizontal=1;fontSize=11;fontStyle=0;spacing=2;" parent="1" vertex="1">
          <mxGeometry x="300" y="1990" width="140" height="80" as="geometry" />
        </mxCell>
        <mxCell id="GadMATzNeodpPZ04Qztf-1" value="galleta[i].proveedor = &quot;&quot;" style="rhombus;whiteSpace=wrap;rounded=1;fillColor=#f8cecc;strokeColor=#b85450;textShadow=1;strokeWidth=1;shadow=1;html=1;horizontal=1;fontSize=11;fontStyle=0;spacing=2;" vertex="1" parent="1">
          <mxGeometry x="310" y="260" width="120" height="100" as="geometry" />
        </mxCell>
        <mxCell id="GadMATzNeodpPZ04Qztf-2" value="galleta[i].proveedor != &quot;&quot;" style="rhombus;whiteSpace=wrap;rounded=1;fillColor=#f8cecc;strokeColor=#b85450;textShadow=1;strokeWidth=1;shadow=1;html=1;horizontal=1;fontSize=11;fontStyle=0;spacing=2;" vertex="1" parent="1">
          <mxGeometry x="300" y="460" width="140" height="100" as="geometry" />
        </mxCell>
        <mxCell id="GadMATzNeodpPZ04Qztf-5" value="" style="edgeStyle=orthogonalEdgeStyle;rounded=1;orthogonalLoop=1;jettySize=auto;fillColor=#dae8fc;strokeColor=#6c8ebf;textShadow=1;strokeWidth=1;shadow=1;html=1;horizontal=1;fontSize=11;fontStyle=0;spacing=2;exitX=0.5;exitY=1;exitDx=0;exitDy=0;" edge="1" parent="1">
          <mxGeometry relative="1" as="geometry">
            <mxPoint x="369.57" y="160" as="sourcePoint" />
            <mxPoint x="369.78" y="190" as="targetPoint" />
          </mxGeometry>
        </mxCell>
        <mxCell id="GadMATzNeodpPZ04Qztf-6" value="" style="edgeStyle=orthogonalEdgeStyle;rounded=1;orthogonalLoop=1;jettySize=auto;fillColor=#dae8fc;strokeColor=#6c8ebf;textShadow=1;strokeWidth=1;shadow=1;html=1;horizontal=1;fontSize=11;fontStyle=0;spacing=2;exitX=0.5;exitY=1;exitDx=0;exitDy=0;" edge="1" parent="1">
          <mxGeometry relative="1" as="geometry">
            <mxPoint x="369.5" y="230" as="sourcePoint" />
            <mxPoint x="369.71" y="260" as="targetPoint" />
          </mxGeometry>
        </mxCell>
        <mxCell id="GadMATzNeodpPZ04Qztf-7" value="Leer(galleta[i].proveedor&lt;span style=&quot;background-color: initial;&quot;&gt;);&lt;/span&gt;" style="rounded=1;whiteSpace=wrap;fillColor=#fff2cc;strokeColor=#d6b656;textShadow=1;strokeWidth=1;shadow=1;html=1;horizontal=1;fontSize=11;fontStyle=0;spacing=2;" vertex="1" parent="1">
          <mxGeometry x="202.8" y="190" width="334.4" height="40" as="geometry" />
        </mxCell>
        <mxCell id="GadMATzNeodpPZ04Qztf-8" value="" style="edgeStyle=orthogonalEdgeStyle;rounded=1;orthogonalLoop=1;jettySize=auto;fillColor=#dae8fc;strokeColor=#6c8ebf;textShadow=1;strokeWidth=1;shadow=1;html=1;horizontal=1;fontSize=11;fontStyle=0;spacing=2;exitX=0.5;exitY=1;exitDx=0;exitDy=0;" edge="1" parent="1">
          <mxGeometry relative="1" as="geometry">
            <mxPoint x="369.57" y="360" as="sourcePoint" />
            <mxPoint x="369.78" y="390" as="targetPoint" />
          </mxGeometry>
        </mxCell>
        <mxCell id="GadMATzNeodpPZ04Qztf-48" value="SI" style="edgeLabel;html=1;align=center;verticalAlign=middle;resizable=0;points=[];" vertex="1" connectable="0" parent="GadMATzNeodpPZ04Qztf-8">
          <mxGeometry x="-0.2008" y="-2" relative="1" as="geometry">
            <mxPoint as="offset" />
          </mxGeometry>
        </mxCell>
        <mxCell id="GadMATzNeodpPZ04Qztf-9" value="Escribir(&quot;El proveedor no puede estar vacio. Ingrese un proveedor &lt;br/&gt;valido.&quot;);" style="rounded=1;whiteSpace=wrap;fillColor=#fff2cc;strokeColor=#d6b656;textShadow=1;strokeWidth=1;shadow=1;html=1;horizontal=1;fontSize=11;fontStyle=0;spacing=2;" vertex="1" parent="1">
          <mxGeometry x="202.8" y="390" width="334.4" height="40" as="geometry" />
        </mxCell>
        <mxCell id="GadMATzNeodpPZ04Qztf-10" value="" style="edgeStyle=orthogonalEdgeStyle;rounded=1;orthogonalLoop=1;jettySize=auto;fillColor=#dae8fc;strokeColor=#6c8ebf;textShadow=1;strokeWidth=1;shadow=1;html=1;horizontal=1;fontSize=11;fontStyle=0;spacing=2;exitX=0.5;exitY=1;exitDx=0;exitDy=0;" edge="1" parent="1">
          <mxGeometry relative="1" as="geometry">
            <mxPoint x="369.5" y="430" as="sourcePoint" />
            <mxPoint x="369.71" y="460" as="targetPoint" />
          </mxGeometry>
        </mxCell>
        <mxCell id="GadMATzNeodpPZ04Qztf-12" style="edgeStyle=orthogonalEdgeStyle;rounded=0;orthogonalLoop=1;jettySize=auto;html=1;fillColor=#dae8fc;strokeColor=#6c8ebf;" edge="1" parent="1">
          <mxGeometry relative="1" as="geometry">
            <mxPoint x="370" y="450" as="targetPoint" />
            <mxPoint x="427" y="310" as="sourcePoint" />
            <Array as="points">
              <mxPoint x="559.9999999999999" y="310" />
              <mxPoint x="559.9999999999999" y="450" />
            </Array>
          </mxGeometry>
        </mxCell>
        <mxCell id="GadMATzNeodpPZ04Qztf-13" value="NO" style="edgeLabel;html=1;align=center;verticalAlign=middle;resizable=0;points=[];" vertex="1" connectable="0" parent="GadMATzNeodpPZ04Qztf-12">
          <mxGeometry x="-0.724" y="1" relative="1" as="geometry">
            <mxPoint as="offset" />
          </mxGeometry>
        </mxCell>
        <mxCell id="GadMATzNeodpPZ04Qztf-14" value="" style="edgeStyle=orthogonalEdgeStyle;rounded=1;orthogonalLoop=1;jettySize=auto;fillColor=#dae8fc;strokeColor=#6c8ebf;textShadow=1;strokeWidth=1;shadow=1;html=1;horizontal=1;fontSize=11;fontStyle=0;spacing=2;exitX=0.957;exitY=0.494;exitDx=0;exitDy=0;exitPerimeter=0;entryX=1;entryY=0.5;entryDx=0;entryDy=0;" edge="1" parent="1" target="m65UX376wMRJ_-_wqiAm-5">
          <mxGeometry relative="1" as="geometry">
            <mxPoint x="440" y="511" as="sourcePoint" />
            <mxPoint x="555" y="142" as="targetPoint" />
            <Array as="points">
              <mxPoint x="455" y="511" />
              <mxPoint x="615" y="512" />
              <mxPoint x="615" y="140" />
            </Array>
          </mxGeometry>
        </mxCell>
        <mxCell id="GadMATzNeodpPZ04Qztf-15" value="NO" style="edgeLabel;html=1;align=center;verticalAlign=middle;resizable=0;points=[];" vertex="1" connectable="0" parent="GadMATzNeodpPZ04Qztf-14">
          <mxGeometry x="0.8935" y="-1" relative="1" as="geometry">
            <mxPoint as="offset" />
          </mxGeometry>
        </mxCell>
        <mxCell id="GadMATzNeodpPZ04Qztf-32" value="" style="edgeStyle=orthogonalEdgeStyle;rounded=1;orthogonalLoop=1;jettySize=auto;fillColor=#dae8fc;strokeColor=#6c8ebf;textShadow=1;strokeWidth=1;shadow=1;html=1;horizontal=1;fontSize=11;fontStyle=0;spacing=2;exitX=0.5;exitY=1;exitDx=0;exitDy=0;" edge="1" parent="1">
          <mxGeometry relative="1" as="geometry">
            <mxPoint x="369.79" y="560" as="sourcePoint" />
            <mxPoint x="370" y="590" as="targetPoint" />
          </mxGeometry>
        </mxCell>
        <mxCell id="GadMATzNeodpPZ04Qztf-33" value="Escribir(&quot;Ingrese el nombre del producto: &quot;);" style="rounded=1;whiteSpace=wrap;fillColor=#fff2cc;strokeColor=#d6b656;textShadow=1;strokeWidth=1;shadow=1;html=1;horizontal=1;fontSize=11;fontStyle=0;spacing=2;" vertex="1" parent="1">
          <mxGeometry x="202.8" y="590" width="334.4" height="40" as="geometry" />
        </mxCell>
        <mxCell id="GadMATzNeodpPZ04Qztf-34" value="galleta[i].nombre = &quot;&quot;" style="rhombus;whiteSpace=wrap;rounded=1;fillColor=#f8cecc;strokeColor=#b85450;textShadow=1;strokeWidth=1;shadow=1;html=1;horizontal=1;fontSize=11;fontStyle=0;spacing=2;" vertex="1" parent="1">
          <mxGeometry x="310" y="730" width="120" height="100" as="geometry" />
        </mxCell>
        <mxCell id="GadMATzNeodpPZ04Qztf-35" value="galleta[i].nombre != &quot;&quot;" style="rhombus;whiteSpace=wrap;rounded=1;fillColor=#f8cecc;strokeColor=#b85450;textShadow=1;strokeWidth=1;shadow=1;html=1;horizontal=1;fontSize=11;fontStyle=0;spacing=2;" vertex="1" parent="1">
          <mxGeometry x="300" y="930" width="141" height="100" as="geometry" />
        </mxCell>
        <mxCell id="GadMATzNeodpPZ04Qztf-36" value="" style="edgeStyle=orthogonalEdgeStyle;rounded=1;orthogonalLoop=1;jettySize=auto;fillColor=#dae8fc;strokeColor=#6c8ebf;textShadow=1;strokeWidth=1;shadow=1;html=1;horizontal=1;fontSize=11;fontStyle=0;spacing=2;exitX=0.5;exitY=1;exitDx=0;exitDy=0;" edge="1" parent="1">
          <mxGeometry relative="1" as="geometry">
            <mxPoint x="369.57" y="630" as="sourcePoint" />
            <mxPoint x="369.78" y="660" as="targetPoint" />
          </mxGeometry>
        </mxCell>
        <mxCell id="GadMATzNeodpPZ04Qztf-37" value="" style="edgeStyle=orthogonalEdgeStyle;rounded=1;orthogonalLoop=1;jettySize=auto;fillColor=#dae8fc;strokeColor=#6c8ebf;textShadow=1;strokeWidth=1;shadow=1;html=1;horizontal=1;fontSize=11;fontStyle=0;spacing=2;exitX=0.5;exitY=1;exitDx=0;exitDy=0;" edge="1" parent="1">
          <mxGeometry relative="1" as="geometry">
            <mxPoint x="369.5" y="700" as="sourcePoint" />
            <mxPoint x="369.71" y="730" as="targetPoint" />
          </mxGeometry>
        </mxCell>
        <mxCell id="GadMATzNeodpPZ04Qztf-38" value="Leer(galleta[i].nombre&lt;span style=&quot;background-color: initial;&quot;&gt;);&lt;/span&gt;" style="rounded=1;whiteSpace=wrap;fillColor=#fff2cc;strokeColor=#d6b656;textShadow=1;strokeWidth=1;shadow=1;html=1;horizontal=1;fontSize=11;fontStyle=0;spacing=2;" vertex="1" parent="1">
          <mxGeometry x="202.8" y="660" width="334.4" height="40" as="geometry" />
        </mxCell>
        <mxCell id="GadMATzNeodpPZ04Qztf-39" value="" style="edgeStyle=orthogonalEdgeStyle;rounded=1;orthogonalLoop=1;jettySize=auto;fillColor=#dae8fc;strokeColor=#6c8ebf;textShadow=1;strokeWidth=1;shadow=1;html=1;horizontal=1;fontSize=11;fontStyle=0;spacing=2;exitX=0.5;exitY=1;exitDx=0;exitDy=0;" edge="1" parent="1">
          <mxGeometry relative="1" as="geometry">
            <mxPoint x="369.57" y="830" as="sourcePoint" />
            <mxPoint x="369.78" y="860" as="targetPoint" />
          </mxGeometry>
        </mxCell>
        <mxCell id="GadMATzNeodpPZ04Qztf-47" value="SI" style="edgeLabel;html=1;align=center;verticalAlign=middle;resizable=0;points=[];" vertex="1" connectable="0" parent="GadMATzNeodpPZ04Qztf-39">
          <mxGeometry x="-0.3445" y="1" relative="1" as="geometry">
            <mxPoint as="offset" />
          </mxGeometry>
        </mxCell>
        <mxCell id="GadMATzNeodpPZ04Qztf-40" value="Escribir(&quot;El nombre no puede estar vacio. Ingrese un proveedor &lt;br&gt;valido.&quot;);" style="rounded=1;whiteSpace=wrap;fillColor=#fff2cc;strokeColor=#d6b656;textShadow=1;strokeWidth=1;shadow=1;html=1;horizontal=1;fontSize=11;fontStyle=0;spacing=2;" vertex="1" parent="1">
          <mxGeometry x="202.8" y="860" width="334.4" height="40" as="geometry" />
        </mxCell>
        <mxCell id="GadMATzNeodpPZ04Qztf-41" value="" style="edgeStyle=orthogonalEdgeStyle;rounded=1;orthogonalLoop=1;jettySize=auto;fillColor=#dae8fc;strokeColor=#6c8ebf;textShadow=1;strokeWidth=1;shadow=1;html=1;horizontal=1;fontSize=11;fontStyle=0;spacing=2;exitX=0.5;exitY=1;exitDx=0;exitDy=0;" edge="1" parent="1">
          <mxGeometry relative="1" as="geometry">
            <mxPoint x="369.5" y="900" as="sourcePoint" />
            <mxPoint x="369.71" y="930" as="targetPoint" />
          </mxGeometry>
        </mxCell>
        <mxCell id="GadMATzNeodpPZ04Qztf-42" style="edgeStyle=orthogonalEdgeStyle;rounded=0;orthogonalLoop=1;jettySize=auto;html=1;fillColor=#dae8fc;strokeColor=#6c8ebf;" edge="1" parent="1">
          <mxGeometry relative="1" as="geometry">
            <mxPoint x="370" y="920" as="targetPoint" />
            <mxPoint x="427" y="780" as="sourcePoint" />
            <Array as="points">
              <mxPoint x="559.9999999999999" y="780" />
              <mxPoint x="559.9999999999999" y="920" />
            </Array>
          </mxGeometry>
        </mxCell>
        <mxCell id="GadMATzNeodpPZ04Qztf-43" value="NO" style="edgeLabel;html=1;align=center;verticalAlign=middle;resizable=0;points=[];" vertex="1" connectable="0" parent="GadMATzNeodpPZ04Qztf-42">
          <mxGeometry x="-0.724" y="1" relative="1" as="geometry">
            <mxPoint as="offset" />
          </mxGeometry>
        </mxCell>
        <mxCell id="GadMATzNeodpPZ04Qztf-44" value="" style="edgeStyle=orthogonalEdgeStyle;rounded=1;orthogonalLoop=1;jettySize=auto;fillColor=#dae8fc;strokeColor=#6c8ebf;textShadow=1;strokeWidth=1;shadow=1;html=1;horizontal=1;fontSize=11;fontStyle=0;spacing=2;exitX=0.957;exitY=0.494;exitDx=0;exitDy=0;exitPerimeter=0;entryX=1;entryY=0.5;entryDx=0;entryDy=0;" edge="1" parent="1" target="GadMATzNeodpPZ04Qztf-33">
          <mxGeometry relative="1" as="geometry">
            <mxPoint x="440" y="981" as="sourcePoint" />
            <mxPoint x="555" y="612" as="targetPoint" />
            <Array as="points">
              <mxPoint x="455" y="981" />
              <mxPoint x="615" y="982" />
              <mxPoint x="615" y="610" />
            </Array>
          </mxGeometry>
        </mxCell>
        <mxCell id="GadMATzNeodpPZ04Qztf-45" value="NO" style="edgeLabel;html=1;align=center;verticalAlign=middle;resizable=0;points=[];" vertex="1" connectable="0" parent="GadMATzNeodpPZ04Qztf-44">
          <mxGeometry x="0.8935" y="-1" relative="1" as="geometry">
            <mxPoint as="offset" />
          </mxGeometry>
        </mxCell>
      </root>
    </mxGraphModel>
  </diagram>
</mxfile>
